# xmcd CD database file generated by OrangeCD 5.2
#
# Track frame offsets:
#	200
#	24362
#	90175
#	115437
#	141082
#	157950
#
# Disc length: 2425 seconds
#
# Revision: 1
# Processed by: cddbd v1.5.1PL0 Copyright (c) Steve Scherf et al.
# Submitted via: OrangeCD 5.2
#
DISCID=3d097706
DTITLE=Lee Oskar - My Road Our Road
DYEAR=1981
DGENRE=Jazz
TTITLE0=My Road
TTITLE1=Our Road
TTITLE2=Up All Night
TTITLE3=Song For My Son
TTITLE4=Children's Song
TTITLE5=Yes, I'm Singing
EXTD=YEAR: 1981
EXTT0=
EXTT1=
EXTT2=
EXTT3=
EXTT4=
EXTT5=
PLAYORDER=
